<svg xmlns="http://www.w3.org/2000/svg" viewBox="0 0 1857.66 268.38"><defs><style>.cls-1,.cls-2{fill:#8fd400;}.cls-1{opacity:0.92;}.cls-3{fill:#69cce6;}.cls-4{fill:#fae316;}.cls-5{font-size:165px;letter-spacing:0.02em;}.cls-5,.cls-6{font-family:Skalalend;}.cls-6{font-size:60px;letter-spacing:0.07em;}</style></defs><g id="Слой_2" data-name="Слой 2"><path class="cls-1" d="M439.5,284h-225L278,172s11.41,9.14,16,9c5.06-.16,11.94-11.12,17-11,4.85.12,13,13,16,11,4,2,12-11,17-11s13,11.25,18,10c4-1,15-8,15-8Z" transform="translate(-41.34 -35.98)"/><path class="cls-2" d="M283,165l44-76.63L372,165l-10,5s-12.85-10.13-18-10c-4.72.12-11.28,9.87-16,10s-11.41-8.94-16-9c-5.37-.07-19,10-19,10Z" transform="translate(-41.34 -35.98)"/><path class="cls-3" d="M417,217l38.2,67h25.69L439.5,207.49A54.22,54.22,0,0,1,429,217C426.43,218.72,417,217,417,217Z" transform="translate(-41.34 -35.98)"/><path class="cls-3" d="M433,196l-41-70-14,25,29,48s8.08,9,14,8S433,196,433,196Z" transform="translate(-41.34 -35.98)"/><path class="cls-4" d="M204,206s10.82,11.67,15,10c2.72-1.09,9.68-7.61,15-10,4.46-2,6.9,2.32,6,4-8,15-40,74-40,74H159.52Z" transform="translate(-41.34 -35.98)"/><path class="cls-4" d="M245,203s-6.64-6.94-9-7c-4.87-.12-12.16,9.26-17,9.48-3,.14-10-6.48-10-6.48l43-75,19,37Z" transform="translate(-41.34 -35.98)"/><path class="cls-4" d="M497.81,284h78.74S570,251,563,237c-5.34-10.69-16-26-29-38-6.84-6.31-20-13-32-19-4.85-2.43-15.72-4.45-21.11-5A91.32,91.32,0,0,0,457,176c-3.84.58-15,4-15,4Z" transform="translate(-41.34 -35.98)"/><path class="cls-4" d="M449,134a13.91,13.91,0,0,0,10,0c2-1,3-4,3-7,0-18.67,1-55,0-74.7-.08-1.66-2.51-4.56-4-5.3-2-1-7.13-1.25-9,0-1.21.81-3,3.54-3,5v75C446,128.58,447,133,449,134Z" transform="translate(-41.34 -35.98)"/><path class="cls-4" d="M562.42,186.86c.63,2.92,4.24,6.43,7.17,7,2.37.44,5.87-1.73,8.65-4.59,17.31-17.84,51.7-51.83,69.24-71.33,1.48-1.65,2.43-6.11,2-7.86-.51-2.36-4-6.15-6.46-6.26a12.35,12.35,0,0,0-6.78,2.68l-69.53,71.62C565.29,179.6,561.91,184.52,562.42,186.86Z" transform="translate(-41.34 -35.98)"/><path class="cls-4" d="M603.76,250.23a17.73,17.73,0,0,0,2.62,9.65c1.26,1.73,3.75,2.1,6,1.49,13.84-3.75,41-10.08,55.38-15,1.21-.41,2.72-3.34,2.88-4.92.22-2.15-.94-7.13-2.35-8.69-.92-1-3.41-2.19-4.49-1.89l-55.61,15.07C607,246.25,604,248.1,603.76,250.23Z" transform="translate(-41.34 -35.98)"/><path class="cls-4" d="M505.25,148.45a18.57,18.57,0,0,0,9,4.3c2.12.2,4-1.36,4.92-3.36,5.92-12.4,18.33-36.11,23.67-49.62.45-1.14-.83-4.12-1.93-5.25-1.5-1.53-6-3.89-8.13-3.87-1.35,0-3.83,1.06-4.29,2l-23.76,49.83C504.26,143.56,503.76,146.92,505.25,148.45Z" transform="translate(-41.34 -35.98)"/><path class="cls-3" d="M98,259c2.66-.44,7.88-2.34,10-4a19.74,19.74,0,0,0,5-7c1-3.07.84-9.76,0-12.87-.57-2.1-3.35-5.71-5-7.13s-5.76-4-8-4H96a37,37,0,0,1-6-9c-1-2.06-1-4-6-7a26.92,26.92,0,0,0-7.13-2.52,62.3,62.3,0,0,0-15.91,0A28.06,28.06,0,0,0,55,208c-2.82,1.52-8.12,5.41-10,8a25.44,25.44,0,0,0-3,8c-.69,4-1,12.33,0,16.26,1,3.74,2.62,5.64,4,7.74a20.86,20.86,0,0,0,4,5c4,4,5,4,8,5a27.42,27.42,0,0,0,3.76,1C70.75,260.18,89.07,260.5,98,259Z" transform="translate(-41.34 -35.98)"/><path class="cls-3" d="M178.61,172.79c5.07-.85,15-4.46,19.08-7.64,3.23-2.53,8.3-9.44,9.54-13.35,1.86-5.85,1.61-18.63,0-24.55-1.09-4-6.39-10.9-9.54-13.62s-11-7.63-15.27-7.63h-7.61s-5.74-5.72-11.47-17.17c-2-3.94-1.91-7.64-11.45-13.36a51.2,51.2,0,0,0-13.61-4.81c-7.5-1.2-22.9-1.39-30.36,0-3,.57-8.65,3.35-11.36,4.81-5.38,2.89-15.5,10.32-19.09,15.26C75.08,94,72.44,102,71.75,106c-1.32,7.64-2,23.53,0,31,1.91,7.14,5,10.76,7.63,14.78,1.31,2,1.91,3.81,7.64,9.54,7.63,7.63,9.54,7.63,15.26,9.54a52.77,52.77,0,0,0,7.18,1.91C126.6,175.05,161.56,175.64,178.61,172.79Z" transform="translate(-41.34 -35.98)"/><path class="cls-3" d="M284,90c2.66-.44,7.88-2.33,10-4a19.7,19.7,0,0,0,5-7c1-3.07.84-9.76,0-12.87-.57-2.1-3.35-5.71-5-7.13a23.42,23.42,0,0,0-8-4,26.88,26.88,0,0,0-4,0s-4.38-6.84-6-9c-1.4-1.84-4.09-5.72-6-7a23.59,23.59,0,0,0-7.13-2.52,62.3,62.3,0,0,0-15.91,0A28,28,0,0,0,241,39c-2.82,1.51-8.12,5.4-10,8a25.44,25.44,0,0,0-3,8c-.69,4-.88,12.29,0,16.26.47,2.12,2.62,5.63,4,7.74a53.28,53.28,0,0,0,4,5c4,4,5.71,4.41,8,5,.94.25,2.79.87,3.76,1C256.75,91.18,275.06,91.49,284,90Z" transform="translate(-41.34 -35.98)"/><text class="cls-5" transform="translate(721.37 186.26)">СКАЛАЛЭНД</text><text class="cls-6" transform="translate(725.37 249.98)">центр </text><text class="cls-6" transform="translate(981.37 249.98)">семейных</text><text class="cls-6" transform="translate(1379.37 249.98)">приключений</text></g></svg>