<svg xmlns="http://www.w3.org/2000/svg" viewBox="0 0 1226.02 731.97"><defs><style>.cls-1,.cls-2{fill:#8fd400;}.cls-1{opacity:0.92;}.cls-3{fill:#69cce6;}.cls-4{fill:#fae316;}.cls-5{font-size:165px;letter-spacing:0.02em;}.cls-5,.cls-6{font-family:Skalalend;}.cls-6{font-size:60px;letter-spacing:0.07em;}</style></defs><g id="Слой_2" data-name="Слой 2"><path class="cls-1" d="M817.69,537.59H379.34l123.71-218.2s22.23,17.81,31.17,17.53c9.86-.3,23.26-21.67,33.12-21.43,9.45.23,25.33,25.33,31.17,21.43,7.79,3.9,23.38-21.43,33.12-21.43S657,337.41,666.7,335c7.79-1.94,29.22-15.58,29.22-15.58Z" transform="translate(-41.98 -54.39)"/><path class="cls-2" d="M512.79,305.75l85.72-149.29,87.67,149.29-19.48,9.74s-25-19.74-35.07-19.48c-9.19.24-22,19.23-31.17,19.48-8.94.25-22.23-17.41-31.17-17.53-10.46-.15-37,19.48-37,19.48Z" transform="translate(-41.98 -54.39)"/><path class="cls-3" d="M773.85,407.06l74.43,130.53h50l-80.63-149a105.69,105.69,0,0,1-20.46,18.52C792.22,410.4,773.85,407.06,773.85,407.06Z" transform="translate(-41.98 -54.39)"/><path class="cls-3" d="M805,366.15,725.15,229.77l-27.28,48.71L754.37,372s15.74,17.51,27.27,15.59C793.33,385.63,805,366.15,805,366.15Z" transform="translate(-41.98 -54.39)"/><path class="cls-4" d="M358.88,385.63S380,408.37,388.1,405.11c5.3-2.12,18.86-14.83,29.23-19.48,8.69-3.9,13.43,4.51,11.69,7.79-15.59,29.22-77.93,144.17-77.93,144.17H272.22Z" transform="translate(-41.98 -54.39)"/><path class="cls-4" d="M438.76,379.78s-12.94-13.52-17.54-13.63c-9.49-.24-23.68,18-33.16,18.47-5.79.27-19.44-12.63-19.44-12.63l83.77-146.12,37,72.09Z" transform="translate(-41.98 -54.39)"/><path class="cls-4" d="M931.29,537.59h153.4s-12.76-64.29-26.4-91.57c-10.41-20.82-31.17-50.65-56.5-74-13.31-12.29-39-25.33-62.34-37-9.45-4.72-30.62-8.67-41.13-9.74-19.26-2-35,.2-46.54,1.95-7.47,1.14-29.22,7.79-29.22,7.79Z" transform="translate(-41.98 -54.39)"/><path class="cls-4" d="M836.19,245.36c4.85,2.42,14.65,2.42,19.49,0,3.89-2,5.84-7.8,5.84-13.64,0-36.38,2-107.15,0-145.53-.16-3.23-4.9-8.89-7.79-10.33-3.92-2-13.88-2.43-17.54,0-2.36,1.57-5.84,6.9-5.84,9.74V231.72C830.35,234.8,832.3,243.41,836.19,245.36Z" transform="translate(-41.98 -54.39)"/><path class="cls-4" d="M1057.16,348.35c1.23,5.68,8.26,12.51,14,13.57,4.6.85,11.42-3.37,16.84-8.95,33.73-34.74,100.73-101,134.91-139,2.88-3.2,4.72-11.9,4-15.29-1-4.6-7.71-12-12.58-12.22-3.15-.14-10.59,2.52-13.22,5.23L1065.61,331.25C1062.76,334.2,1056.17,343.77,1057.16,348.35Z" transform="translate(-41.98 -54.39)"/><path class="cls-4" d="M1137.7,471.8c-.53,5.16,2,14.62,5.1,18.81,2.46,3.37,7.3,4.07,11.64,2.9,27-7.31,80-19.66,107.89-29.25,2.35-.81,5.31-6.51,5.62-9.6.42-4.18-1.83-13.88-4.59-16.92-1.78-2-6.64-4.25-8.75-3.68l-108.33,29.36C1144,464,1138.13,467.65,1137.7,471.8Z" transform="translate(-41.98 -54.39)"/><path class="cls-4" d="M945.78,273.51c3.6,3.69,12.45,7.91,17.59,8.38,4.13.39,7.74-2.66,9.59-6.54,11.53-24.17,35.71-70.36,46.11-96.69.87-2.22-1.61-8-3.76-10.22-2.93-3-11.77-7.59-15.83-7.55-2.63,0-7.46,2.07-8.36,4l-46.29,97.08C943.85,264,942.88,270.54,945.78,273.51Z" transform="translate(-41.98 -54.39)"/><path class="cls-3" d="M152.37,488.88c5.17-.86,15.35-4.55,19.48-7.79,3.29-2.59,8.47-9.64,9.74-13.64,1.89-6,1.64-19,0-25.06-1.11-4.1-6.53-11.13-9.74-13.9s-11.23-7.79-15.59-7.79h-7.77s-5.86-5.85-11.71-17.54c-2-4-1.95-7.79-11.69-13.64a52.16,52.16,0,0,0-13.9-4.9c-7.65-1.23-23.38-1.42-31,0-3.09.58-8.82,3.41-11.6,4.9-5.49,3-15.82,10.54-19.48,15.59-2.44,3.37-5.13,11.49-5.84,15.59-1.35,7.8-2.05,24,0,31.67,1.94,7.29,5.09,11,7.79,15.08,1.34,2,1.95,3.9,7.79,9.75,7.79,7.79,9.74,7.79,15.59,9.74a52.08,52.08,0,0,0,7.33,1.94C99.27,491.19,135,491.8,152.37,488.88Z" transform="translate(-41.98 -54.39)"/><path class="cls-3" d="M309.41,320.92c9.87-1.65,29.3-8.69,37.18-14.87,6.28-4.94,16.17-18.4,18.58-26,3.62-11.4,3.14-36.29,0-47.83-2.12-7.81-12.45-21.24-18.58-26.52-6.3-5.43-21.43-14.87-29.75-14.87H302s-11.2-11.16-22.35-33.46c-3.83-7.67-3.72-14.87-22.31-26-6-3.61-19.58-8.24-26.52-9.36-14.6-2.34-44.61-2.71-59.15,0-5.91,1.1-16.85,6.52-22.14,9.36-10.48,5.65-30.19,20.11-37.17,29.74-4.66,6.43-9.8,21.92-11.15,29.75-2.58,14.88-3.91,45.84,0,60.44,3.71,13.91,9.72,21,14.87,28.78,2.55,3.88,3.71,7.43,14.87,18.59,14.87,14.87,18.58,14.87,29.74,18.58,3.43,1.15,10.4,3.25,14,3.72C208.09,325.32,276.19,326.48,309.41,320.92Z" transform="translate(-41.98 -54.39)"/><path class="cls-3" d="M514.73,159.62c5.17-.87,15.35-4.55,19.47-7.79,3.3-2.59,8.47-9.64,9.74-13.64,1.89-6,1.64-19,0-25-1.11-4.1-6.53-11.13-9.74-13.9s-11.3-7-15.58-7.79c-1.91-.37-7.77,0-7.77,0s-8.52-13.33-11.71-17.53c-2.71-3.58-7.95-11.13-11.68-13.63-3.06-2-10.26-4.32-13.9-4.91-7.65-1.22-23.37-1.42-31,0-3.09.58-8.82,3.42-11.59,4.91-5.49,3-15.82,10.53-19.48,15.58-2.44,3.37-5.13,11.48-5.84,15.58-1.35,7.8-1.71,23.94,0,31.67.91,4.14,5.09,11,7.79,15.07a102.88,102.88,0,0,0,7.79,9.74c7.79,7.79,11.13,8.59,15.58,9.74,1.84.47,5.45,1.7,7.33,2C461.64,161.92,497.32,162.53,514.73,159.62Z" transform="translate(-41.98 -54.39)"/><text class="cls-5" transform="translate(33.73 649.85)">СКАЛАЛЭНД</text><text class="cls-6" transform="translate(37.73 713.57)">центр </text><text class="cls-6" transform="translate(293.73 713.57)">семейных</text><text class="cls-6" transform="translate(691.73 713.57)">приключений</text></g></svg>