<svg xmlns="http://www.w3.org/2000/svg" viewBox="0 0 774.7 767.23"><defs><style>.cls-1,.cls-2{fill:none;stroke:gray;stroke-width:20px;}.cls-2{stroke-linecap:round;}</style></defs><g id="Слой_2" data-name="Слой 2"><path class="cls-1" d="M281.89,310.57s35.56,69.1,60.51,105.65c30.09,44.09,68.65,91.24,93.6,112.86,36.4,31.55,101.53,51.69,101.53,51.69s38-82.86,64.72-90.61C638.32,479.71,713,522.25,741.4,546.79c24.51,21.16,82.09,64.91,85.75,97.08,1.78,15.64-16.58,45.31-27.51,56.63-36,37.3-80.58,60.75-111.64,72.81-17.86,6.94-57.17,13-76,9.71-53.8-9.51-151-66.88-194.16-100.32-47.78-37-138.42-117.76-178-163.41-31.1-35.89-89.69-111.59-111.64-153.71-18-34.51-42.89-90.05-44.09-128.95,0,0-8.09-54.52,17-95.87,26-42.91,52.32-61.34,70.79-77.74C184.34,51.94,217,33.8,233.35,37.13c30.88,6.29,71.72,63.27,89.8,89.07,18.69,26.68,59.69,87.31,55.82,119.65C376.54,266.16,281.89,310.57,281.89,310.57Z" transform="translate(-72.84 -26.73)"/><path class="cls-2" d="M495.52,274.13c27.37-12.6,72.26-20.59,109.48,12.4,34.69,30.76,35,65.49,35,89.53" transform="translate(-72.84 -26.73)"/><path class="cls-2" d="M457.3,188.34c52.15-24,137.7-39.22,208.6,23.64,66.1,58.59,66.79,124.78,66.79,170.58" transform="translate(-72.84 -26.73)"/><path class="cls-2" d="M415.57,94.1c79.91-36.77,211-60.09,319.63,36.22,101.28,89.78,102.35,191.2,102.35,261.37" transform="translate(-72.84 -26.73)"/></g></svg>