<svg id="Слой_2" data-name="Слой 2" xmlns="http://www.w3.org/2000/svg" viewBox="0 0 497.47 492.93"><defs><style>.cls-1,.cls-2{fill:none;stroke:#1d1d1b;}.cls-1{stroke-miterlimit:10;stroke-width:20px;}.cls-2{stroke-linejoin:round;stroke-width:40px;}</style></defs><path class="cls-1" d="M19.33,18.19V491.12H496.8V60.25s-1-17.52-12-29.56-28.9-12.5-28.9-12.5Z" transform="translate(-9.33 -8.19)"/><path class="cls-2" d="M123.35,156.25s1.13,42.13,14.71,73.77c11.32,26.37,23,43.21,45,63.28C204.76,313.14,220.75,324,236.08,328c10.61,2.78,27.29,2.28,27.29,2.28V156.25" transform="translate(-9.33 -8.19)"/><path class="cls-2" d="M393.47,356.84s-1.5-22.55-5.05-32.33c-4.55-12.54-9-18.28-22.74-32.85-12.63-13.39-28.42-19.07-37.64-22.23-15.3-5.23-64.67,0-64.67,0" transform="translate(-9.33 -8.19)"/><path class="cls-2" d="M390.44,161.05s.67,21.22,0,33.6c-.79,15.16-8.54,22-25.8,40.93a251,251,0,0,1-33.6,30.82" transform="translate(-9.33 -8.19)"/></svg>