<svg xmlns="http://www.w3.org/2000/svg" viewBox="0 0 1228.02 483.99"><defs><style>.cls-1,.cls-2{fill:#8fd400;}.cls-1{opacity:0.92;}.cls-3{fill:#69cce6;}.cls-4{fill:#fae316;}</style></defs><g id="Слой_2" data-name="Слой 2"><path class="cls-1" d="M799,509H359.89L483.8,290.43S506.07,308.27,515,308c9.88-.31,23.3-21.7,33.18-21.47,9.47.23,25.36,25.37,31.22,21.47,7.8,3.9,23.42-21.47,33.17-21.47s25.38,22,35.13,19.52c7.8-2,29.27-15.61,29.27-15.61Z" transform="translate(-21.98 -25)"/><path class="cls-2" d="M493.56,276.77l85.86-149.54,87.81,149.54-19.51,9.75S622.63,266.75,612.59,267c-9.2.24-22,19.26-31.22,19.51-9,.25-22.27-17.43-31.22-17.56-10.48-.14-37.08,19.52-37.08,19.52Z" transform="translate(-21.98 -25)"/><path class="cls-3" d="M755.05,378.24,829.59,509h50.13L799,359.69a106,106,0,0,1-20.49,18.55C773.44,381.59,755.05,378.24,755.05,378.24Z" transform="translate(-21.98 -25)"/><path class="cls-3" d="M786.27,337.26l-80-136.6-27.32,48.79,56.59,93.66s15.77,17.54,27.32,15.62C774.56,356.77,786.27,337.26,786.27,337.26Z" transform="translate(-21.98 -25)"/><path class="cls-4" d="M339.4,356.77s21.1,22.78,29.27,19.52c5.3-2.12,18.88-14.86,29.27-19.52,8.71-3.9,13.46,4.53,11.71,7.81C394,393.85,331.59,509,331.59,509h-79Z" transform="translate(-21.98 -25)"/><path class="cls-4" d="M419.4,350.92s-13-13.54-17.56-13.66c-9.5-.24-23.72,18.06-33.22,18.5-5.8.27-19.47-12.65-19.47-12.65l83.91-146.35L470.14,269Z" transform="translate(-21.98 -25)"/><path class="cls-4" d="M912.74,509h153.65s-12.78-64.39-26.44-91.71c-10.43-20.86-31.22-50.74-56.59-74.16-13.34-12.31-39-25.36-62.44-37.07-9.47-4.74-30.67-8.69-41.2-9.76-19.3-1.95-35.09.2-46.62,2-7.49,1.14-29.27,7.81-29.27,7.81Z" transform="translate(-21.98 -25)"/><path class="cls-4" d="M817.49,216.27c4.85,2.43,14.67,2.43,19.51,0,3.91-2,5.86-7.8,5.86-13.66,0-36.44,1.95-107.32,0-145.76-.17-3.24-4.91-8.9-7.81-10.35-3.93-2-13.9-2.43-17.56,0-2.37,1.58-5.85,6.91-5.85,9.76V202.61C811.64,205.7,813.59,214.32,817.49,216.27Z" transform="translate(-21.98 -25)"/><path class="cls-4" d="M1038.82,319.43c1.23,5.7,8.27,12.53,14,13.6,4.61.85,11.44-3.38,16.86-9,33.79-34.8,100.9-101.13,135.13-139.19,2.89-3.21,4.74-11.92,4-15.32-1-4.61-7.73-12-12.6-12.24-3.16-.14-10.61,2.53-13.25,5.24L1047.28,302.31C1044.42,305.26,1037.83,314.85,1038.82,319.43Z" transform="translate(-21.98 -25)"/><path class="cls-4" d="M1119.49,443.09c-.53,5.17,2,14.64,5.1,18.84,2.47,3.37,7.32,4.08,11.66,2.9,27-7.32,80.08-19.69,108.07-29.29,2.35-.81,5.32-6.53,5.63-9.62.42-4.18-1.84-13.91-4.6-16.95-1.78-2-6.65-4.26-8.76-3.69L1128.08,434.7C1125.8,435.32,1119.91,438.93,1119.49,443.09Z" transform="translate(-21.98 -25)"/><path class="cls-4" d="M927.26,244.47c3.6,3.7,12.46,7.92,17.61,8.4,4.14.38,7.76-2.67,9.61-6.56,11.55-24.21,35.77-70.47,46.18-96.84.88-2.22-1.61-8-3.77-10.24-2.92-3-11.78-7.6-15.85-7.56-2.64,0-7.47,2.08-8.37,4L926.3,232.88C925.32,234.93,924.35,241.49,927.26,244.47Z" transform="translate(-21.98 -25)"/><path class="cls-3" d="M132.55,460.2c5.18-.87,15.38-4.56,19.51-7.81,3.3-2.59,8.49-9.66,9.76-13.66,1.9-6,1.64-19,0-25.1-1.12-4.1-6.54-11.15-9.76-13.92s-11.25-7.81-15.61-7.81h-7.78s-5.88-5.85-11.73-17.56c-2-4-2-7.81-11.71-13.66a52.41,52.41,0,0,0-13.93-4.92c-7.66-1.23-23.41-1.42-31,0-3.1.58-8.85,3.42-11.62,4.92-5.51,3-15.85,10.55-19.52,15.61-2.44,3.37-5.14,11.5-5.85,15.61-1.35,7.82-2.05,24.06,0,31.73,1.95,7.3,5.1,11,7.8,15.1,1.34,2,2,3.91,7.81,9.76,7.8,7.81,9.76,7.81,15.61,9.76a53.41,53.41,0,0,0,7.35,1.95C79.36,462.51,115.11,463.12,132.55,460.2Z" transform="translate(-21.98 -25)"/><path class="cls-3" d="M289.85,292c9.88-1.65,29.35-8.7,37.23-14.89,6.3-4.95,16.2-18.44,18.62-26.07,3.62-11.41,3.14-36.35,0-47.9-2.13-7.83-12.48-21.28-18.62-26.57-6.3-5.44-21.46-14.9-29.79-14.9H282.44s-11.21-11.17-22.38-33.51c-3.84-7.68-3.73-14.89-22.35-26.06-6-3.63-19.61-8.27-26.56-9.38-14.63-2.35-44.69-2.72-59.25,0-5.91,1.1-16.87,6.52-22.17,9.38-10.5,5.65-30.24,20.13-37.24,29.78-4.67,6.44-9.81,22-11.17,29.79-2.58,14.92-3.91,45.92,0,60.54,3.73,13.94,9.75,21,14.9,28.83,2.55,3.89,3.72,7.45,14.89,18.62,14.9,14.89,18.62,14.89,29.79,18.62,3.44,1.14,10.42,3.25,14,3.72C188.36,296.37,256.58,297.53,289.85,292Z" transform="translate(-21.98 -25)"/><path class="cls-3" d="M495.5,130.4c5.18-.87,15.37-4.56,19.5-7.81,3.3-2.59,8.49-9.65,9.76-13.65,1.9-6,1.64-19,0-25.1-1.11-4.1-6.54-11.14-9.76-13.92s-11.32-7-15.6-7.8c-1.91-.37-7.78,0-7.78,0s-8.54-13.35-11.73-17.56c-2.72-3.58-8-11.15-11.71-13.66-3.06-2-10.27-4.32-13.91-4.91-7.67-1.23-23.41-1.42-31,0-3.1.58-8.84,3.42-11.62,4.91-5.5,3-15.84,10.55-19.51,15.61-2.44,3.37-5.14,11.5-5.85,15.61-1.35,7.81-1.71,24,0,31.71.92,4.15,5.11,11,7.8,15.11a104.51,104.51,0,0,0,7.81,9.75c7.8,7.8,11.15,8.61,15.6,9.76,1.84.47,5.46,1.7,7.35,2C442.33,132.71,478.07,133.31,495.5,130.4Z" transform="translate(-21.98 -25)"/></g></svg>